<?xml version="1.0" encoding="UTF-8"?>
<svg xmlns="http://www.w3.org/2000/svg" style="display: none;">
    <!-- Icônes de base -->
    <symbol id="save" viewBox="0 0 24 24">
        <path d="M17 3H5a2 2 0 00-2 2v14a2 2 0 002 2h14a2 2 0 002-2V7l-4-4zm-5 16a3 3 0 110-6 3 3 0 010 6zm3-10H5V5h10v4z"/>
    </symbol>

    <symbol id="load" viewBox="0 0 24 24">
        <path d="M19 9h-4V3H9v6H5l7 7 7-7zM5 18v2h14v-2H5z"/>
    </symbol>

    <symbol id="history" viewBox="0 0 24 24">
        <path d="M13 3a9 9 0 00-9 9H1l4 4 4-4H6c0-3.9 3.1-7 7-7s7 3.1 7 7-3.1 7-7 7c-1.9 0-3.7-.8-4.9-2.1l-1.4 1.4C8.3 20 10.5 21 13 21c5 0 9-4 9-9s-4-9-9-9zm-1 5v5l4.3 2.5.7-1.2-3.5-2V8H12z"/>
    </symbol>

    <symbol id="settings" viewBox="0 0 24 24">
        <path d="M19.14 12.94c.04-.3.06-.61.06-.94 0-.32-.02-.64-.07-.94l2.03-1.58a.49.49 0 00.12-.61l-1.92-3.32a.488.488 0 00-.59-.22l-2.39.96c-.5-.38-1.03-.7-1.62-.94l-.36-2.54a.484.484 0 00-.48-.41h-3.84c-.24 0-.43.17-.47.41l-.36 2.54c-.59.24-1.13.57-1.62.94l-2.39-.96c-.22-.08-.47 0-.59.22L2.74 8.87c-.12.21-.08.47.12.61l2.03 1.58c-.05.3-.07.62-.07.94s.02.64.07.94l-2.03 1.58a.49.49 0 00-.12.61l1.92 3.32c.12.22.37.29.59.22l2.39-.96c.5.38 1.03.7 1.62.94l.36 2.54c.05.24.24.41.48.41h3.84c.24 0 .44-.17.47-.41l.36-2.54c.59-.24 1.13-.56 1.62-.94l2.39.96c.22.08.47 0 .59-.22l1.92-3.32c.12-.22.07-.47-.12-.61l-2.01-1.58zM12 15.6c-1.98 0-3.6-1.62-3.6-3.6s1.62-3.6 3.6-3.6 3.6 1.62 3.6 3.6-1.62 3.6-3.6 3.6z"/>
    </symbol>

    <symbol id="generate" viewBox="0 0 24 24">
        <path d="M19 9h-4V3H9v6H5l7 7 7-7zM5 18v2h14v-2H5z"/>
    </symbol>

    <!-- Icônes de navigation -->
    <symbol id="previous" viewBox="0 0 24 24">
        <path d="M15.41 7.41L14 6l-6 6 6 6 1.41-1.41L10.83 12z"/>
    </symbol>

    <symbol id="next" viewBox="0 0 24 24">
        <path d="M10 6L8.59 7.41 13.17 12l-4.58 4.59L10 18l6-6z"/>
    </symbol>

    <!-- Icônes d'édition -->
    <symbol id="add-page" viewBox="0 0 24 24">
        <path d="M19 13h-6v6h-2v-6H5v-2h6V5h2v6h6v2z"/>
    </symbol>

    <symbol id="delete" viewBox="0 0 24 24">
        <path d="M6 19c0 1.1.9 2 2 2h8c1.1 0 2-.9 2-2V7H6v12zM19 4h-3.5l-1-1h-5l-1 1H5v2h14V4z"/>
    </symbol>

    <symbol id="edit" viewBox="0 0 24 24">
        <path d="M3 17.25V21h3.75L17.81 9.94l-3.75-3.75L3 17.25zM20.71 7.04a.996.996 0 000-1.41l-2.34-2.34a.996.996 0 00-1.41 0l-1.83 1.83 3.75 3.75 1.83-1.83z"/>
    </symbol>

    <!-- Icônes de mise en forme -->
    <symbol id="add-section" viewBox="0 0 24 24">
        <path d="M13 7h-2v4H7v2h4v4h2v-4h4v-2h-4V7zm-1-5C6.48 2 2 6.48 2 12s4.48 10 10 10 10-4.48 10-10S17.52 2 12 2zm0 18c-4.41 0-8-3.59-8-8s3.59-8 8-8 8 3.59 8 8-3.59 8-8 8z"/>
    </symbol>

    <!-- Icônes de l'éditeur -->
    <symbol id="bold" viewBox="0 0 24 24">
        <path d="M15.6 10.79c.97-.67 1.65-1.77 1.65-2.79 0-2.26-1.75-4-4-4H7v14h7.04c2.09 0 3.71-1.7 3.71-3.79 0-1.52-.86-2.82-2.15-3.42zM10 6.5h3c.83 0 1.5.67 1.5 1.5s-.67 1.5-1.5 1.5h-3v-3zm3.5 9H10v-3h3.5c.83 0 1.5.67 1.5 1.5s-.67 1.5-1.5 1.5z"/>
    </symbol>

    <symbol id="italic" viewBox="0 0 24 24">
        <path d="M10 4v3h2.21l-3.42 8H6v3h8v-3h-2.21l3.42-8H18V4z"/>
    </symbol>

    <symbol id="underline" viewBox="0 0 24 24">
        <path d="M12 17c3.31 0 6-2.69 6-6V3h-2.5v8c0 1.93-1.57 3.5-3.5 3.5S8.5 12.93 8.5 11V3H6v8c0 3.31 2.69 6 6 6zm-7 2v2h14v-2H5z"/>
    </symbol>

    <!-- Icônes d'alignement -->
    <symbol id="align-left" viewBox="0 0 24 24">
        <path d="M15 15H3v2h12v-2zm0-8H3v2h12V7zM3 13h18v-2H3v2zm0 8h18v-2H3v2zM3 3v2h18V3H3z"/>
    </symbol>

    <symbol id="align-center" viewBox="0 0 24 24">
        <path d="M7 15v2h10v-2H7zm-4 6h18v-2H3v2zM3 7v2h18V7H3zm4 6h10v-2H7v2zM3 3v2h18V3H3z"/>
    </symbol>

    <symbol id="align-right" viewBox="0 0 24 24">
        <path d="M3 21h18v-2H3v2zm6-4h12v-2H9v2zm-6-4h18v-2H3v2zm6-4h12V7H9v2zM3 3v2h18V3H3z"/>
    </symbol>

    <!-- Icônes de liste -->
    <symbol id="list-ul" viewBox="0 0 24 24">
        <path d="M4 10.5c-.83 0-1.5.67-1.5 1.5s.67 1.5 1.5 1.5 1.5-.67 1.5-1.5-.67-1.5-1.5-1.5zm0-6c-.83 0-1.5.67-1.5 1.5S3.17 7.5 4 7.5 5.5 6.83 5.5 6 4.83 4.5 4 4.5zm0 12c-.83 0-1.5.68-1.5 1.5s.68 1.5 1.5 1.5 1.5-.68 1.5-1.5-.67-1.5-1.5-1.5zM7 19h14v-2H7v2zm0-6h14v-2H7v2zm0-8v2h14V5H7z"/>
    </symbol>

    <symbol id="list-ol" viewBox="0 0 24 24">
        <path d="M2 17h2v.5H3v1h1v.5H2v1h3v-4H2v1zm1-9h1V4H2v1h1v3zm-1 3h1.8L2 13.1v.9h3v-1H3.2L5 10.9V10H2v1zm5-6v2h14V5H7zm0 14h14v-2H7v2zm0-6h14v-2H7v2z"/>
    </symbol>

    <!-- Icônes d'insertion -->
    <symbol id="image" viewBox="0 0 24 24">
        <path d="M21 19V5c0-1.1-.9-2-2-2H5c-1.1 0-2 .9-2 2v14c0 1.1.9 2 2 2h14c1.1 0 2-.9 2-2zM8.5 13.5l2.5 3.01L14.5 12l4.5 6H5l3.5-4.5z"/>
    </symbol>

    <symbol id="table" viewBox="0 0 24 24">
        <path d="M20 2H4c-1.1 0-2 .9-2 2v16c0 1.1.9 2 2 2h16c1.1 0 2-.9 2-2V4c0-1.1-.9-2-2-2zM8 20H4v-4h4v4zm0-6H4v-4h4v4zm0-6H4V4h4v4zm6 12h-4v-4h4v4zm0-6h-4v-4h4v4zm0-6h-4V4h4v4zm6 12h-4v-4h4v4zm0-6h-4v-4h4v4zm0-6h-4V4h4v4z"/>
    </symbol>
</svg>